<svg viewBox="0 0 250.57 208.03" xmlns="http://www.w3.org/2000/svg" xmlns:xlink="http://www.w3.org/1999/xlink"><radialGradient id="a" cx="146.7" cy="172.96" gradientUnits="userSpaceOnUse" r="208.17"><stop offset="0" stop-color="#fff"/><stop offset="1" stop-color="#0065a4"/></radialGradient><clipPath id="b" transform="translate(.14)"><path d="m22.33 104.13c0 57.18 45 103.4 102.34 103.4a103.52 103.52 0 1 0 0-207c-48.03-.03-102.34 41.8-102.34 103.6"/></clipPath><radialGradient id="c" cx="-1040.38" cy="660.58" gradientTransform="matrix(107.82 0 0 -107.57 112322.78 71095.35)" gradientUnits="userSpaceOnUse" r="1.93"><stop offset="0" stop-color="#fff"/><stop offset="1" stop-color="#5a91c2"/></radialGradient><clipPath id="d" transform="translate(.14)"><path d="m22.33 104.13c0 57.18 45 103.4 102.34 103.4a103.52 103.52 0 1 0 0-207c-48.03-.03-102.34 41.8-102.34 103.6"/></clipPath><radialGradient id="e" cx="-1040.38" cy="660.58" gradientTransform="matrix(107.82 0 0 -107.57 112322.78 71095.35)" r="1.93" xlink:href="#a"/><linearGradient id="f" gradientTransform="matrix(-7.88 91.5 91.5 7.88 -69127.48 90903.96)" gradientUnits="userSpaceOnUse" x1="-1050.26" x2="-1048.33" y1="666.41" y2="666.41"><stop offset="0" stop-color="#fff"/><stop offset=".15" stop-color="#fbfcfd"/><stop offset=".3" stop-color="#eef3f9"/><stop offset=".46" stop-color="#d8e5f1"/><stop offset=".63" stop-color="#bad1e6"/><stop offset=".8" stop-color="#93b7d7"/><stop offset=".97" stop-color="#6598c6"/><stop offset="1" stop-color="#5a91c2"/></linearGradient><linearGradient id="g" x1="-1050.26" x2="-1048.33" xlink:href="#f" y1="666.2" y2="666.2"/><clipPath id="h" transform="translate(.14)"><path d="m22.33 104.13c0 57.18 45 103.4 102.34 103.4a103.52 103.52 0 1 0 0-207c-48.03-.03-102.34 41.8-102.34 103.6"/></clipPath><g clip-path="url(#b)"><path d="m22.47.5h206.1v207.03h-206.1z" fill="url(#c)"/></g><path d="m22.33 104.13c0 57.18 45 103.4 102.34 103.4a103.52 103.52 0 1 0 0-207c-48.03-.03-102.34 41.8-102.34 103.6" fill="url(#a)" transform="translate(.14)"/><g clip-path="url(#d)"><path d="m22.47.5h206.1v207.03h-206.1z" fill="url(#e)"/></g><g transform="translate(.14)"><path d="m123.93 8.67c-.06-.41 1.51-.69 1 .21 0 0-.93 0-1-.21" fill="#91ba4d" fill-rule="evenodd"/><path d="m120.23 11.2c-.28-.36 1.06-.52 1.28-.33.43.38-1.28.33-1.28.33" fill="#91ba4d" fill-rule="evenodd"/><path d="m149.94 3.63-.14-.08z" fill="#91ba4d" fill-rule="evenodd"/><path d="m123.07 10.71a6.12 6.12 0 0 1 3.54-.43 10.87 10.87 0 0 0 1.36 2c-.22.61 1.25.6.94 2 0-.18-1.34 2-.84 1.79-1.3.67-1.13-2.74-1.39-3.62-.49-1.55-2.66-1.13-4-1.42a.53.53 0 0 1 .38-.33" fill="#91ba4d" fill-rule="evenodd"/><path d="m166.28 9.24c-.13-.08.1-.31.17-.28s-.08.32-.17.28" fill="#91ba4d" fill-rule="evenodd"/><path d="m129.25 21.71a2.52 2.52 0 0 1 2.55.83c.32.44-8.08.73-2.55-.83z" fill="#91ba4d" fill-rule="evenodd"/><path d="m126 23.22c0-.11 2.34.14 2.31.1.63 1-2.73 1.44-2.31-.1.13-.52 0 .14 0 0" fill="#91ba4d" fill-rule="evenodd"/><path d="m159.25 15.79c-.17-.32.63-.22.65-.16.1.3-.53.38-.65.16" fill="#91ba4d" fill-rule="evenodd"/><path d="m167.53 16.91c-.14-.08.08-.32.16-.27s-.09.32-.16.27" fill="#91ba4d" fill-rule="evenodd"/><path d="m125.88 33.74a2 2 0 0 1 1.71-.43 6.21 6.21 0 0 0 -.27.76s2.2 1.28.8 1.59c-.84.19-2.68-.36-2.83-1.55a1.29 1.29 0 0 1 .59-.37z" fill="#91ba4d" fill-rule="evenodd"/><path d="m160.87 25.89c.85.24 3.59 1.8 3.82 2.46l.7 1a.36.36 0 0 0 .38-.32 1 1 0 0 1 .21.85 1.61 1.61 0 0 0 .54-.59.48.48 0 0 1 .32.38c.16 0 .21-.13.16-.28.84.28 1.78 1.34 1.45 2 .07-.14 1.7-.58 2.09.38.05.11-.69 2.41-1 2.41.65 0-2.19-1.62-1.94-1.33-.33-.38 1-.34 1-.49.26-.94-2.12 0-1.6 0 .29 0-1.21-.55-.7 0 .25.25 1.07 0 .86.68-.16.53-1.86.32-2 .05a1 1 0 0 0 0-.7c.4.08-1.73 1.18-1.78.22a19.71 19.71 0 0 1 -1.75-1.61c.11 0 3.4.05 3.33.26-.21.6-1.75-2.51-1.77-2.53a10.13 10.13 0 0 0 .26 1.08.19.19 0 0 1 -.26-.16c-.47.1.24 1.53-1.22.75.2.11-.77.05-.61.16-.49-.33-1.09-2.11-.64-1.66-.74-1-2.31-1-1.62-2.79.15-.05.23 0 .27.15.32-.93.33-.71 1.5-.36.22.05-.76-.23 0 0m5.13 4.86c.13 0-.4.23-.38.33.18.69 1-.07.38-.33" fill="#91ba4d" fill-rule="evenodd"/><path d="m124 36.27c0-.39.58-.43 1-.16 1.14.78-1.31 1.64-1 .16 0 0-.18.76 0 0" fill="#91ba4d" fill-rule="evenodd"/><path d="m128.56 36.27c.43-.3 1.21.56 1.13.85-.26.88-2.18-.12-1.13-.85z" fill="#91ba4d" fill-rule="evenodd"/><path d="m177 25.71c.37-.59 1.63.54 1.13.85-.34.23-1.43-.34-1.13-.85" fill="#91ba4d" fill-rule="evenodd"/><path d="m166 34.63c.09 0-.81-.7-.8-.48 0-.89 1.47-.34 1.58.19-.12.32-.38.41-.78.29z" fill="#91ba4d" fill-rule="evenodd"/><path d="m171.45 32.59c.18-.16 1.38.1 1.14-.05a2.83 2.83 0 0 1 .48 2.84.52.52 0 0 1 -.5-.14c.78.2-1 .6-1.22.57a7.17 7.17 0 0 0 -1.82 0c-.37-.05-1.44-.21-1.35-.81 0 .19 1.79-.68 1.88-.7-.22 0 .38.88 1.25.21s-.46-1.34.14-1.92-.42.42 0 0" fill="#91ba4d" fill-rule="evenodd"/><path d="m165.77 34.47a.76.76 0 0 0 .54.32c-.8 1.89-2.6-.48-2.8-.22.37-.48 1.76-.33 2.26-.1z" fill="#91ba4d" fill-rule="evenodd"/><path d="m167.86 33.72a.22.22 0 0 1 .43-.11c0 .34-.19 0-.43.11" fill="#91ba4d" fill-rule="evenodd"/><path d="m180.48 37.63c-.25 1-.55.37-1 .69-.75.58 1.2 1.06-1 .75-.83-.11-.29-1-.46-1.07-.68-.19-.23 1.07-1.22.32-.81-.61-2.84-1.69-2.86-2.94a.82.82 0 0 1 .84-.22c-.09-.35-.18-.71-.26-1.07a1 1 0 0 0 .7 0c0-.11-1.42-.52-.53-1.23s1.42.39 1.23.37a3.46 3.46 0 0 1 1.18.17.45.45 0 0 0 .1-.49 2.48 2.48 0 0 0 .54.32c.37-1.47.57-.3 1.18-.75s-.91-1 .43-1c1 0 .36.39 1.08.64a.88.88 0 0 1 .54-.59c.18 0 .35 1.36 1.47.43.13-.1 1-1.51 1-1.51.18 0 3 2.08 3 2 0 .19-2.23 1.15-1.71 1.2.75.08.88.67 1.28.73a.43.43 0 0 0 .11-.48 12.19 12.19 0 0 1 1.5-.37c0 .14.08.28.11.42.32.18 1.53-.1 2 .64.21.35-.68.51-.74.65 0-.1.3.61.1.43.42.39 1.64-.3 1.89.22a10.25 10.25 0 0 1 -.87 2c-.12.09-1.5-1.09-2 0 0 .09 1.27 1.44.48 1.93-.25.14-1.28-.79-1.39-1-.81-1.77.1-1.07-1.4-1.92-1.66-1-1.91-2.78-3.93-1.47a6.3 6.3 0 0 0 -2.35.06c-.1.14 1.33.59 1 .22-.15-.14 0 1.91 0 1.83m-3.43-3.7c0 .29-1.31-.68-.92 0s1 .3.92 0m-.22 2.79c.38-.63-1.1-.9-1-.43a4.72 4.72 0 0 0 1 .43" fill="#91ba4d" fill-rule="evenodd"/><path d="m163.3 36.46c0-.09.33-.5.58-.38.6.28-1 1.73-.58.38" fill="#91ba4d" fill-rule="evenodd"/><path d="m164.21 37.37c.41-.69 1.21.12 1 .43-.27.46-1.28 0-1-.43" fill="#91ba4d" fill-rule="evenodd"/><path d="m170.61 36.46c.06-.4 1.73-.37 1.25.34s-1.39.34-1.25-.34c0-.26 0-.34 0 0" fill="#91ba4d" fill-rule="evenodd"/><path d="m163.67 38.87c.63-.82 1.27.68 1.41 1a3.63 3.63 0 0 0 -.76-.27 3.88 3.88 0 0 1 .54 1.23c0-.16-1.25.06-.81.43a1.79 1.79 0 0 1 -.38-2.42c.57-.74-.59.8 0 0" fill="#91ba4d" fill-rule="evenodd"/><path d="m183.16 35.58c0-.27.37-.32.43-.1-.16.17-.32.36-.43.1" fill="#91ba4d" fill-rule="evenodd"/><path d="m180.64 36.44c0-.35.25-.07.27.17s-.24.07-.27-.17" fill="#91ba4d" fill-rule="evenodd"/><path d="m165.29 40.75c-.15-.28 0-.33.33-.12.12.6-.73.83-.33.12z" fill="#91ba4d" fill-rule="evenodd"/><path d="m172.8 38.87s4.41 1.36 3.38 2.57c-.8.94-2.78-.6-3.21-1 .35.23.56.16.63-.24s-2.55-.69-.8-1.32c.39-.22 0 0 0 0" fill="#91ba4d" fill-rule="evenodd"/><path d="m183.11 36.28c.46-.77 1.72.48 1.39 1 0 0-1.64-.61-1.39-1" fill="#91ba4d" fill-rule="evenodd"/><path d="m139.36 48.39c.4-.18.92-.52 1.26.09s-1.58.76-1.85.28a.62.62 0 0 1 .59-.37z" fill="#91ba4d" fill-rule="evenodd"/><path d="m169.16 44.35c.49-.09 0-1 .28-1.13s.57.82.79.86c-1.07-.19 2.29-1.14 1.29-.33.28-.23-.14-1-.28-1 .18 0 1.69.75 1.78.64-.17.21-2-2-1.93-2.26.32-1.38 1.88.7 2.37 1.07a6 6 0 0 0 3.25 1.14c.94.14 1.61.86 1.2 1.74v-.41c.63-.22.75.57.6 1-.32.89-1 .12-1.52.51s.51 2.23-1 2.89c0 0-2.8-.33-3.12-.38-1.6-.32 1.37-2 1-2.26-.66-.45-1.72.86-2.28 1-1.36.32 0-1.36-.23-1.52a1.79 1.79 0 0 0 -.54.59s-2-.87-1.44-1.24c-.73.45 1 3.45-1 2.32-.53-.31-.35-.67-1.05-.42-.93.34-.92-1.85-1.27-2.43-1-1.65-.7-1.35 1-1.4.55 0 .39-.7 1-.54 1.58.46.25.83 1.12 1.62.53-.1-.37-.33 0 0" fill="#91ba4d" fill-rule="evenodd"/><path d="m186.28 42.56c-.19-1 .13 0 .43-.1a8.12 8.12 0 0 1 1.94-.49c2.46 0 .18.6.21.86.08.5 1.38 1.12 1.13 1.77 0-.08-1.13 0-.78.28-.47-.41-2.84-1.94-2.93-2.32-.18-.94 0 0 0 0" fill="#91ba4d" fill-rule="evenodd"/><path d="m119.61 61.55c.07 0 .93-.16.92 0 0 .69-1.54.43-1.5.36z" fill="#91ba4d" fill-rule="evenodd"/><path d="m190.68 43.75c0-.38 1 .8.75 1.17-.62.33-.75-1.07-.75-1.17 0-.29 0 1.38 0 0" fill="#91ba4d" fill-rule="evenodd"/><path d="m204.91 43.14c.16-1.49.84 2.41.17.65a2.23 2.23 0 0 1 -.17-.65" fill="#91ba4d" fill-rule="evenodd"/><path d="m142.16 61.39c.42-.71 2.3 1 2.31 1-.49.81-2.54-.62-2.31-1 .41-.69-.17.28 0 0" fill="#91ba4d" fill-rule="evenodd"/><path d="m199.12 48.24c0-.4 1.27.33.91.93 0 0-.9-.67-.91-.93" fill="#91ba4d" fill-rule="evenodd"/><path d="m145.06 67.5c.29-1.08 1.8.19 1.24.79-.32.34-1.31-.5-1.24-.79s0 0 0 0" fill="#91ba4d" fill-rule="evenodd"/><path d="m203.2 53.62a5.43 5.43 0 0 1 -.22-.86c.49-.58 1.06 1.08.22.86z" fill="#91ba4d" fill-rule="evenodd"/><path d="m157.84 72.06c-.59-.24.5-1.14.75-.65.09.18-.45.76-.75.65" fill="#91ba4d" fill-rule="evenodd"/><path d="m157.84 72.06c2.14.6-1.5 3.6-1.61.86 0-.27.81.25.75.27a.68.68 0 0 0 .06-.7c-.14.3 1-.37.8-.43z" fill="#91ba4d" fill-rule="evenodd"/><path d="m211 61.93c.48-.83.68 1.14-.05.7-.13-.08 0-.65.05-.7" fill="#91ba4d" fill-rule="evenodd"/><path d="m94.68 5.52c1.63-.4.1-.28 1.73-.67.11.23.61 0 .57-.15 3.29-.83 8.86-2.32 12.15-3.15 2.7-.45 26.12-2.49 31.09.14-.47-.24-4.17-.63-5 .74-.3.49-4.32-.57-4.66 0 0 0 7.82-.21 7.42 1.79.15-.77-1.78 0-1.95.3-.3.47 4.36-.23 4.47-.7.15-.77-2.07-.77-2-.86a13.7 13.7 0 0 1 2.46-1.07c.55 0 1.45.07 1.28.12 1.38.11.89.31 2.32.57a24.12 24.12 0 0 0 4.08.64 16.49 16.49 0 0 1 -4.45-.32c-.1.19 7.42 1.51 6.55 2.47.34-.37-7.88.79-7 1.46l.6.16a2.76 2.76 0 0 1 -1.67-.28 6.73 6.73 0 0 0 -.75.65c-.31.09-1.13.09-1.56.16a21.94 21.94 0 0 1 -2.42.39 3.48 3.48 0 0 0 -.1-.44.51.51 0 0 0 -.11.47c-.9.4-3-1-3.37-.59s-7.39-.16-7.69-.73c-.85-1.8 4.11-.45 4.35-.87 0 .07-3.81-2.17-4.62-1.12 0 0 1 .29 1.18.17-.61.4-1.47.17-2.07.63 2-1.49-1.32 2.79-1 .81-.13.79 1.88 1.2 1.88 1.13-.07 1.17-2.69-.27-3-.16 0 0-.2 1 0 .7-.13.21-1.35 1.53-1.57 1.5-.49-.05-.28-1-1.16-.07-.13.15-1.15 1.79-1.68 1.38-.06-.05 1.32.34 1.13.52-1.19 1.11-4.08.2-4.94 1.23-.28.36 4.27.34 4.27.33a11.45 11.45 0 0 1 2.77 2.25c0 .34-1.25-.49-.6-.54-.87.07-1.3 1.23-2.22.2-.56-.63-2 .07-2.84-.26-1.23-.51-2.21.13-3.2-.15-.52-.14-1.72-1.78-1.35-1.72a2 2 0 0 0 -1.23.54c-.39 1.42 2.71 1.15 3.06 1.29a1.08 1.08 0 0 0 0 .71 2.27 2.27 0 0 0 .75-.66c.91-.26 1.92.53 2.95.31.57-.11 2.21 1 2.14 1.05-.37.28-1.4-.71-1.5.25a.81.81 0 0 1 .59.54c-.1.09-2.15.73-2 1s2.83-.72 3.32-.37c.65.46-.52 1.38-.21 1.87.55.87 2.06-.62 2.41 1.1.16.85 1.1 1.75.94 2.51-.11.58 2.43.4 2.51 1.55 0 .14-1.79.31-1.93.48-.49.62 1.07 1 .19 1.55s-1.44.33-2.27.6-2.6-1.32-2.76-1.39a1.7 1.7 0 0 0 -1.15-.13c-.43.22 1.52.8 1.59.93.52 1.14-.82.75-.87 1.13-.13 1 2 1.25.32 1.88-2 .76 2.1 1.73 1.89 1.45.41.58-1 2.84-1.08 2.47 0-.21-2.48 1.23-2.25 1.55.66.9 1.57-.55 2.26-.1-.15-.09.44 2.31.32 2.2s1.65.7 1.07.65c.5 0 1-.77 1.88-.71 1.13.06 2.47 2.37 2.75 3.66a1 1 0 0 0 -.7-.06c-.4 1.44.81 2.05 1.88 2.46 1.85.71 1.23 1.73 1 3.23-.07.59 3.13 1.42 3.8 1.8s-.33 1.69 1.27 1.69c.13 0 .16-1.34.54-1.5s1.33 1 1.66 1.18c.94.4 1.45-.12 2.09.79a26.56 26.56 0 0 0 3.22 3.57c.5.49.35 1.26.77 1.64 1 .92 2.49.64 3.18 2.11.61 1.3-1.73.69-1.8.75.25-.2-.94 1.53-.85 1.11a7.94 7.94 0 0 1 .43.81c-1.93.84-2.07-1.87-2.9-2.47a3 3 0 0 1 -1.23-.37c-.11-.22.49-1.57-.17-1.56-.48 0-.19 1-.36 1.23-.72 1-1.77.58-2.71.62.54 0 .33 2.91.36 3.25.1 1.19-2.33-.23-2.81-.18a28.21 28.21 0 0 0 -4 .58 19.61 19.61 0 0 0 -2.36 1.29c-.49-.06-.29-1.16-.91-1.42-.46-.19-2.56-.29-2.66 0 .06-.18.94-.53.51-.82s-1 .64-1.45.61 0-1.07-.91-.92c-.45.06-3.06 1.72-3.11 2.14a7.19 7.19 0 0 0 .85.7 29.58 29.58 0 0 1 -1.39 2.63 4.92 4.92 0 0 0 -1.24-.37c-.8.25-.26 1.49-.91 1.83s-1.71-.41-2.52 0c-.59.24-.53 1.2-1 1.39a.62.62 0 0 1 -.88-.38c-.75-.78-1.11.73-1.48 1s-2.55 1.21-2.95 1c-.23-.14 4.75-11.05 7.86-9.56 2.2 1.07 4.58-2.17 6.73-1.5.3.09 3.46-1.8 3.43-1.69.21-.93-4.26 1.1-5.1.6-.42-.24.29-.89.43-1 1.21-1.08-1.16-1-1.72-1.41-.74-.49-2.49.31-3.24.57-1 .34-.95 1.65-.78 1.59-.47.15-3.7-1.08-3.26-1.78.12-.21 1 .35 1.06.28.62-1.41-2.37-1.7-2.59-2a9.58 9.58 0 0 0 -3.36-2.68c-2-.33-4.57.81-6.67.81-1 0-1.9-.32-2.87-.36-1.46 0 0 1.07 0 1.54-.27.1-1 .3-1 .63s1 .11 1 .15a5.72 5.72 0 0 0 -.82.57c.49-1 2.23.82 2.12 1.75-.06.44-1.69 2-1.51 2.2.33.32 3-1.63 3.44-1.76.29 1.16-2.63 3-3.17 3.76s-1.27 4.4-2.25 4.67c-.74.18-.25-2.66-2.47-.43-.79.78-.87 2.82-1.87 3.12 1.57-.47-1-1.85-1.14-.86-.08-1 8-7.64 7.35-8s-3.28 1.49-3.72 2c-1.5 1.67-3.23 1.82-5.36 2.51-2 .64-8.69 3.16-9-.2-.17-1.73-4.69.54-5.54.35-2.88-.67-1.7.73-2.93 2.54-1 1.47-1.34 4-3.65 4.25 0-.22-.11-.42-.17-.64a1.1 1.1 0 0 1 -.58.38 7.88 7.88 0 0 0 -1.07-.64c.31.12-.7-1-.71-1 .1-.71 1.78-1 2.15-1.45 1-1.14.19-1 1.29-1.23 1.3-.34.59-2 .32-2.66-.33-.87 1-.82 1.45-1.2 3.08-2.56-2.11-2.24-2.36-3.06-.12-.33 2.13-1 2.46-1.07 3.22-1.19-2.76-1.63-3-2-.91-1.34-1.25 1.53-1.76 2-.76.73 2.78 2.74 1 4.08-.1.07-3.23-1.7-4.51-.7-.39.31-.54 2.19-1 2.87-.82 1.1-.81 2.43-1.47 3.46-.08.13-.6-.69-.43-.8-.55.35-.08 1.28-.56 1.69s-1.08-.46-1.16-.34c-.62.81.29 1.76-.7 2.68a.44.44 0 0 1 -.32-.37.45.45 0 0 0 -.11.48 6.75 6.75 0 0 1 -1.18.75c-.05-.22-.1-.43-.16-.65-.68 0-1.37 1.17-2.2 1.24a1.25 1.25 0 0 0 .05-.69 14.37 14.37 0 0 0 -1.59 1.71c0-.28-1.47-.69-1.57-.7-.31 0-2.37.7-2.67 0-.14-.34-.24-1.34-.76-1.31-1 .08.21-1 .09-1.06-.35-.34-.45.55-.53.58a.27.27 0 0 1 -.1-.42 3.63 3.63 0 0 1 -.65.16.37.37 0 0 1 .11-.48c-.09-.13-.84-.42-1.14-.86-.55-.86-1 .65-1.24.41 0 0 .33-1.32.34-1.33.74-1 .81-.79.74-2.16-.1-2-3-.1-3.37.77-1.42 3.3-1.79 7-3.51 10.2a8.74 8.74 0 0 1 -.79 1.28c-1.59 2.26-1.38-.29-2.36.23-.05-.22-.11-.43-.16-.64a19.84 19.84 0 0 1 1.34-6.5c.16-.46 1.13-3.82 1.07-3.93 0 0-1.65 1.91-1.8 2.18-.64 1.25-2.71-1.06-2.22-2.44.92-2.58 2-5 3.21-7.49a40.27 40.27 0 0 1 2.77-5.72c1.07-1.6 3.75-5.94 5.18-7.92 12.34-17 28.64-32.27 53.83-40.65 5.54-1.37 1.29-.52 0 0m18.79 9.64c-.21-.28-2.08.19-2 .28.32.35 2.13-.08 2-.28.07.12.24.34 0 0m2.89 2.48c-.84.08-2.15-.66-2.73 0 .92-.23 2.17.62 2.73 0m3.48 6.33c-.24.14 0-1.22.21-1-.53-.75-1.21 1.62-.21 1zm-26.21 34.67c.37-.48-1.36-.89-1.25-.37 0-.12 1 .67 1.25.37s-.27.35 0 0" fill="#91ba4d" fill-rule="evenodd"/><path d="m218.76 119.32c-.6-1.38-1.95-.66-1.77-2.53s-1-2.55-2.32-3.3a.86.86 0 0 1 -.77-.84c-.07-.76-1 0-1.49-.41-.8-.73 1-1.1-.89-1.51-2.17-.48.35-.46-.66-1.08 0 0-2.52.28-2.19-.88.59-2.08-3.29-2.8-3.29-2.75-.94 1.57 2.43 3.43 3.12 4.23.8 1 5.4 6.51 4.24 6.93s-3.21-3.86-4-4.24a1.43 1.43 0 0 1 -.27.76 5.74 5.74 0 0 1 -1.47-.7c-.13-.25 1.53-1.54.08-2.21-2.31-1.06-2.77-3.17-4.33-5-.86-1-4-.91-4.16-1.43-.42-1.62-3-2.28-3.07-4 0 0 .84.16.37-.32s-.55.42-1.07.26-.93-1.29-1.12-1.58a13.74 13.74 0 0 0 -1.14-1.72c-.76-.9 0-2.08-.73-3.09-1.58-2.23-1.56-4.49-2.14-7.08-.17-.66-2.5-2.91-2.09-3.47.19-.27 1.71-.08 2 0 .16-.52-1.34-2.15-1.77-2.52a.59.59 0 0 1 -.32.53c-.14 0 .65-.85-.43-.8 1 0-.47.87-.6.37.11.43 2.3 1.57 2.1 2-.51 1.09-1.79-.49-1.71-.48-.67-.1-1.62.46-2.12-.73 0 .08-2.24-.62-1.75-1.05s1.43.17 2-.26c-.62-.54-1.52-.2-2-.86s0-1.1-.44-1.71c.3.43-.9-.91-.92-.92l-2-.86a1 1 0 0 1 .06-.7c-.16-.15-1 .59-1-.12 0-.93.39-.36-.26-1.16a.66.66 0 0 1 0 .69c-.27-.16-.83-2.31-1.18-2-.94.1 1 .87.32 1.28-.87.53-.92-3-2.1-2-.41.37 2 3.08 2 3.08-.92-.2-1.92-1.47-2.44-2.27.33.51-.91 0-.37-.79.28-.41.16-2.13-.7-1.81.14-.06.66 1.94-.07 1.74-.43-.13-.33-1.22-.79-1.4.33.13-.58.66-.52.66a1.48 1.48 0 0 1 -.51-1.08c0 .06 1.13.21.64-.16-2.24.38-2.95-1.07-4.56-1.83-.47-.21-3.46.41-3.84-.3a23.07 23.07 0 0 0 -3.15-1.15c-.51.39.12 1 .31 1.35.54.91-.7.5-.75.64-.24.49-.08.4-.46.76-1.36 1.33-1.05-.17-1.29-.17-2.12-.1 1.14-2.63.91-2.25a.47.47 0 0 1 .06-.7c-1.08.46-4.08 4.69-2.34 4.16a28.2 28.2 0 0 1 -2.06 2c-1.41.91-2.08 2.93-3.66 3.65-.46 0-1.8.55-2.57.64a.52.52 0 0 0 -.32-.37c.12 0-1.39 1.93-2.12.94.07.1 4.26-2.53 4.24-1.94 0-1.12 1.73-1.74 2.57-2.26s-.07-1.61.45-2.48c-.55.92-1-.25-1.38-.23a.69.69 0 0 1 -.28.76c-.33-.05-.81-.7-1.07-.93-.56-.51-1.31.94-1.77.5.2.19.2-2 .16-2.16-.28-1-1.24.12-1.88-.15a8.17 8.17 0 0 1 -1.52-3 7.05 7.05 0 0 1 1.52-2.43c.47-.31.87.79 1.24-.17.16-.4 2 .09 1.53-.72-.06-.12-.41-1.6-.14-1.36-.68-.61-.88.54-1.45.59.06 0-2.42-.8-1.7-.62-.28-.07-1.84-2-1.67-2.31 1.38-2.39 3.25 1.11 4.44-.07.7-.72-4.74-3.93-3-4.45s1.64-1.58 3.18-2.33c.55-.27 1.27-.05 1.73-.31 1.27-.73.12-.75 1.35-.11a.37.37 0 0 1 .38-.33 2 2 0 0 0 .37.59 4.78 4.78 0 0 1 1.07-.26c.54.26-.9.46.29.81s2.88 0 4.08 0c1.59 0 4.22 2 5.72 1.23-.77.4 0-1.3.12-1.4-.35.31.65.54.8.49.52-.21.34-1.51.87-1.75.25-.11.26 1.4.58 1.16s.38-1.92.43-1.94c.2 0 1.36 1.12 1.88 1.13a2.74 2.74 0 0 1 -.51-1.17c.09-.1.81.81 1.07.69.59-.26.14-.74.67-1a19.72 19.72 0 0 1 3.82-.26c1.08 0 .72 2.43 2.46.75.42-.4-.08-1 .65-1.08s1.07 1 1.82.92c.18-.13-1.25-1.72-1.61-1.88-2.4-1.18 1.62-.63 2.25-1 2.16 0-1.73-3.77-1.73-3.76.33-1.32 3.26 2.08 3.77 1.88 0-.48-1-1.1-1.19-1.68-.44-1.61-.66-.05-1.23-.68-.24-.31.14-1.3-.83-.49-.73.63-.74-.44-1.56-.67s-.88-1-1.47-1.53c-.9-.71-2.17-.85-3-1.64-.67-.65.23-2.11 1-1.29s.35 1.12.8 1.86c.36.54 6.35 3.21 6.83 2.63-.63-.09-.94-.4-.92-.91.78-.78 2.09 1 2.83 1.08a15.7 15.7 0 0 0 -1.59-1.62c-.44-.44-2.79-1.83-1.5-2.36 1.09-.48 5.14 2.3 4.67 3.16a2.44 2.44 0 0 0 -.71-.06c.18.54 1.27.32.93.91-.18.31.61 1.36.86 1.62.58.63 2.34 1 1.72 2.28-.45.93.77.71.77 1.55a22.57 22.57 0 0 0 1.1 2.49c.58 1.47 2.56 4.2 4.2 4.73-.14 0 .23-1.41.91-.45a4.22 4.22 0 0 0 1.4 1.03 3.3 3.3 0 0 1 1.66-1.54c.57-.1 1.48-.09 1.94-.5.28-.23-.06-1.45.54-1.5.82-.08 1.7 2 2.41 2.37s1.51.16 2.21.57c.59-.62-1.81-3-2.48-3.48-2.24-1.45-2.75-3.89-5.32-5.43-.71-.42-1.37.2-1.84-.53-.77-1.22-1.46-1.24-2.56-1.87-.53-.3-2.33-1.47-2.06-2.18.2-.5-.1-1.53 0-1.63s1.66-.09 1.77-.22a.41.41 0 0 0 -.12-.64c.33.37 3.47 2 2.88.51-.18-.49-2.25-2.86-2.61-2.73.94-.33 2.51.74 3.13.44.38-.13.38 0 .88.43s.84-1.53.9-1.56a.62.62 0 0 0 .58.54.68.68 0 0 1 .05-.69c1.53.12 2.38 2.23 3.82 2.46a.8.8 0 0 1 -.26-1.07c1.91-1 2.82 4.83 3.5 5.41a31.93 31.93 0 0 1 -4.21-4.56c.33 2 2.41 3.3 2.94 5.37.18.66 1.09 3.93 2.17 4.08.61.1-1.05-1.76-.27-2 .21-.06 2.07 3.43 2.84 2.24.1-.86-.74.47-1-.35a28.7 28.7 0 0 0 -.76-2.86c.39-.44 1.07 1.66 1.13 1.77l3.23 5.58c-.79 0-.66-1.43-1.3-1.49.51.92 3.37 7.49 3.8 6.69 0 0 1.19 3.61 1.27 3.93.35 1.34 1.22 2 1.77 3.23.49 1.05.24 2.29.85 3.14a2.68 2.68 0 0 1 .28-.74c2.22 3.19 2.8 7.24 3.61 11.09.26 1.25 4.72 10.43 3.7 10.82-.64.23-1.67-3.93-2.58-3.93.62 0-.82 2.44-.81 2.37-.06.45-.89 2.66-.5 2.94a1.57 1.57 0 0 1 .68 1.25 2.5 2.5 0 0 1 -.49-.11 5 5 0 0 0 .16.64c-.57 1.65-.55-.14-1 .5-.1.12-1.18 3.16-1.12 2.78-.6 3.08.34 5.33.7 8.27.35 2.69.48 5.42 2 7.83 1.36 2.15 2.47-1.68 2.67-2.84.38-2.21-1.22-6.41.7-8.32-.34.36.6 8.75.91 9.28-.55-.34 1.09-4.26 1.23-4.18.43.18-.45 6.67-.43 7.49a21.93 21.93 0 0 1 -.14-2.69c-.12 1 .93 5.07-.25 5.65.49-.24-.17-2.71-.29-2.58-.5.54-.36 1.44-1.06 1.86-1.75 1-1.17-.16-2.25 2-1 2-4 1.39-4.91 2.92h-.21c-.22-.51.07 0 0 0m-44.94-65.33a1.23 1.23 0 0 0 -.27 1.66c-1.15-1.19 2.11-1.56 2.13-1.65-.07.31-1.33.75-1.44.8a1.64 1.64 0 0 1 .65-.16c.4.11 0 1.51 0 1.73 0 1.29 1.54-.93 1.13-.88 0 0 .41.84.58.55s-.61-1.42-.58-1.46l.85-.22a2 2 0 0 0 -.75-1.17c.34.35-.65.83-.7.83-.52 0 .08-1-.14-1.07s-1.31.83-1.46 1c-.45.55.09-.13 0 0m32.16 8.14c.85.78-.37-1.77-.37-.58 0 .26.25.47.37.58m4.09.81s-1.3-1.33-1.24-1.3a.82.82 0 0 0 -.54.6c-.7.2-.3-.51-.67-.65s-.17 5.63.68 6.12c.67.39.33-2.22.47-2.63a.42.42 0 0 0 .34.38 7.62 7.62 0 0 0 1-2.52c-.13-.36.07.22 0 0m.16-.28a2.5 2.5 0 0 0 .65.76c-.12.41-.23.82-.38 1.24a4.49 4.49 0 0 0 .26 2.23c.17.26 3.43 4.4 3.44 4.36.57-.92-2.54-4.3-2.9-5.2-.42-1.07-.46-3.25.76-1.56-.31-.45.67.78.64.76s.42-.27.84.54a5.91 5.91 0 0 0 -.14-1.41c-.35-.76-1.28-1.14-1.62-1.88a1.51 1.51 0 0 1 .7.05c.54-2-2.06-1.56-2.25.11-.05.43 0-.25 0 0m4.35 3.71c0 .35-.48 1.36-.05 1.62 1.17.69-.12-4.45-.33-4 0 .73.34 1.47.38 2.41m-28.87 14.3c.25.61 1.13-.66.38-.31-.14 0-.45.14-.38.31" fill="#91ba4d" fill-rule="evenodd"/><path d="m145.35 14.94c.57-.18-2.41.79-2.74 0 0-1.43 2-.31 2-.27.21-.37-2.33-1.8-2.22-1.92.94-1.12 1.55 1 2 .85.84-.24-.36-1.78 1-1.16s.46 1.32.41 1.26c.14.17 2.41.16 1.68 1.33.15-.26-2.58 0-2.06-.09" fill="#91ba4d" fill-rule="evenodd"/><path d="m169.94 14.71c-.75.1-6.78-3-6.39-3.66.65-1.1 8 3.66 6.39 3.66-.42.06 0 0 0 0" fill="#91ba4d" fill-rule="evenodd"/><path d="m165.28 15.19c1.1-1.15 6.26 2.6 7.08 2.79a10 10 0 0 1 4 2.2c.76.53 3.77 1.1 4.33 1.76a9.11 9.11 0 0 0 1.9 1.24c1.24.53 4.41.65 4.41 3a.3.3 0 0 1 -.43.11.36.36 0 0 0 .33.37c-.31.67-.53-.08-.71-.05a.52.52 0 0 0 -.1.48c-1.23.38-3.4-.25-4.46-.48-1.33-.29-1.12.14-2.31-1 0 0 .09.5.07.51-.27.06-2-1.61-2.54-1.25-.32.19.52.9-.22 1.23s-.29-1.86-1.5-.8c-.22.19.58 1 .49 1-.94.26-3.25-.79-4.25-.53-3.38 0-.26 2.46-.8 3.17s-.52-.29-.75-.27a.65.65 0 0 0 -.53.59c-.49-.23-.57-1.55-1.08-1.56s-.09 1.84-1.67.65c-.51-.41-1.74-2-2.52-1.88-.4 0 .18.61 0 .69a21.51 21.51 0 0 1 -4.48-2.29c-.12-.36.78-.39.48-.81s-.81.25-1.05 0c0-.28 0-.57.08-.87-1.27.14-.3-.33-1.23-.64-.21-.07-.31 1.25-.75.64a5.49 5.49 0 0 1 .05-.7s-3.8-1.37-2.5-2.27c.95-.67 1.85 1.25 2.45 1.14.13 0-1.44-1.23-1.46-1.34.1.43 0-.32-.4 0-.06.06 1.19-.37 1-.48-.44-.29-3.23-.12-2.88-1.15.17-.51 2.67.11 3.11.11a.63.63 0 0 0 -.64-.28c.3-.11 3.16-.45 2.28-1.3-.52-.5 2.1.17 1.79.28.48-.18-.23-.84-.21-.86.27-.33 1.42-.19.78-.8.31.29 2.55.24 2.51.32.29-.47.75.06 1.17-.55 1-1.53 1.33 1.25 2 1.45-.48-.14.22-1 .27-.75a1.37 1.37 0 0 0 -1.12-.86c.4-.43.35.12 0 0m-1.94 1.41c.08-.15-.29-.73-.38-.61s.29.74.38.61m.48.09c.15.54.73-.23.66-.47s-.69.37-.66.47zm3.65 0a.51.51 0 0 0 -.38.33c1.5.91-.11-1.19 0-.8 0 .12.42.41.41.47s0-.12 0 0" fill="#91ba4d" fill-rule="evenodd"/><path d="m167.38 34.52c.05-.11-.07-.69.32-.53.23.09-.62 1.38-.32.53" fill="#91ba4d" fill-rule="evenodd"/><path d="m169.31 37.69a1.82 1.82 0 0 0 -1-.43.48.48 0 0 1 .38-.33s-.58-.64-.22-.85 1.86.71 2.14 1c1.69 1.5-1.11.3-.9.32-.09 0-.55.32-.38.32-.33-.22 0 0 0 0" fill="#91ba4d" fill-rule="evenodd"/><path d="m166.25 38.23c.56-.43 1.25.76 1.78.69a.53.53 0 0 0 -.16-.64c2.18.79.82 1 .86 2.52 0 2-1-.07-1.41-.1-.07 0-.17 1.53-1.17.75.28.2-.37-1.4-.32-1.15-.48-2.48 2.14.68 2.35-.73 0-.26-1.77-.82-1.93-1.34.44-.34.25.79 0 0" fill="#91ba4d" fill-rule="evenodd"/><path d="m144.21 78.67c-.26.2.75-1.54.75-.65s-1.49.65-1.75 1a3.23 3.23 0 0 1 1-.31" fill="#91ba4d" fill-rule="evenodd"/><path d="m178.57 78.27c-.55-.39-1.72-1.3-1.67-2.09 0-.07 2 .83.92 0 .44.34 1.42 2.57.75 2.09z" fill="#91ba4d" fill-rule="evenodd"/><path d="m181 77s-.38-.24-.06-.21.62 1.5.06.21" fill="#91ba4d" fill-rule="evenodd"/><path d="m223.64 96.13c-.17-.67-.31-8.49.24-8.72-.13.06.73 3.8.67 4.09a1.12 1.12 0 0 1 -.33-.32c-.78 1.43.19 4.58-.53 5.16-.25.13-.28 0-.05-.21-.23-1-.2.25 0 0" fill="#91ba4d" fill-rule="evenodd"/><path d="m107.26 180.26c-1.8 8.73-6.09 24.51-5.88 24.57 9.77 2.82 25.83 2.6 25.83 2.6l.05-1.47-1.37-13.39z" fill="url(#f)"/><path d="m86.69 95.38c3.12-9.15 1.18-16.18 21-14.41 1.7-1.65 6.52-11.15 5.46-13.26-5.49-2.8-18.9-5.84-18.9-5.84s-2.84-4-6.43-5.46a34.25 34.25 0 0 0 -13.08-2.7 32.85 32.85 0 0 0 -12.1 2.37c-.89-.51-4.48-2-7.52-.55-4.88 2.35-3.94 6.23-3.93 6.39a16.08 16.08 0 0 0 -1.94 2 69.24 69.24 0 0 0 -12.89 20.5c-.61 1.42-7.62 15.48-10.36 26.07a60.75 60.75 0 0 0 -2.14 11.64c7.17 43.63 38.64 64.47 38.64 64.47l.76-18.22-4.06-4.58.38-1.25 5.58 4.56 3 23.61a138.24 138.24 0 0 0 28.47 13c4.23-11.22 7.19-15.56 6.26-32.59l1.8 4c-.06 1 2.7 3.35 2.72 3.45l19.91 13 3 15.66a106.22 106.22 0 0 0 43.55-12.14c2.6-19.76 4.55-40.09-3.9-53.46-20.33-32.17-68.46-39.35-83.28-46.26z" fill="url(#g)"/><path d="m86.69 95.38c3.12-9.15 1.18-16.18 21-14.41 1.7-1.65 6.52-11.15 5.46-13.26-5.49-2.8-18.9-5.84-18.9-5.84s-2.84-4-6.43-5.46a34.25 34.25 0 0 0 -13.08-2.7 32.85 32.85 0 0 0 -12.1 2.37c-.89-.51-4.48-2-7.52-.55-4.88 2.35-3.94 6.23-3.93 6.39a16.08 16.08 0 0 0 -1.94 2 69.24 69.24 0 0 0 -12.89 20.5c-.61 1.42-7.62 15.48-10.36 26.07a60.75 60.75 0 0 0 -2.14 11.64c7.17 43.63 38.64 64.47 38.64 64.47l.76-18.22-4.06-4.58.38-1.25 5.58 4.56 3 23.61a138.24 138.24 0 0 0 28.47 13c4.23-11.22 7.19-15.56 6.26-32.59l1.8 4c-.06 1 2.7 3.35 2.72 3.45l19.91 13 3 15.66a106.22 106.22 0 0 0 43.55-12.14c2.6-19.76 4.55-40.09-3.9-53.46-20.33-32.17-68.46-39.35-83.28-46.26z" fill="none"/><path d="m107.26 180.26c-1.8 8.73-6.09 24.51-5.88 24.57 9.77 2.82 25.83 2.6 25.83 2.6l.05-1.47-1.37-13.39z" fill="none"/><path d="m127.21 207.43s-16.06.22-25.83-2.6c-.21-.06 4.08-15.84 5.88-24.57l18.63 12.31 1.37 13.43zm46.66-12.37a106.22 106.22 0 0 1 -43.55 12.14l-3-15.66-19.91-13c0-.1-2.78-2.49-2.72-3.45l-1.8-4c.93 17-2 21.37-6.26 32.59a138.24 138.24 0 0 1 -28.47-13l-3-23.61-5.58-4.56-.38 1.25 4.09 4.58-.76 18.22s-31.47-20.84-38.64-64.47a60.75 60.75 0 0 1 2.11-11.6c2.71-10.59 9.72-24.65 10.33-26.07a69.24 69.24 0 0 1 12.96-20.42 16.08 16.08 0 0 1 1.94-2c0-.16-.95-4 3.93-6.39 3-1.46 6.63 0 7.52.55a32.85 32.85 0 0 1 12.1-2.37 34.25 34.25 0 0 1 13.08 2.7c3.59 1.47 6.43 5.46 6.43 5.46s13.41 3 18.9 5.84c1.06 2.11-3.76 11.61-5.46 13.26-19.86-1.77-17.92 5.26-21 14.41 14.82 6.91 62.95 14.09 83.28 46.22 8.41 13.32 6.46 33.62 3.86 53.38z" fill="none"/><path d="m127.21 207.43.05-1.47-1.37-13.39-18.63-12.31c-1.8 8.73-6.09 24.51-5.88 24.57 9.77 2.82 25.83 2.6 25.83 2.6zm46.66-12.37c2.6-19.76 4.55-40.09-3.9-53.46-20.33-32.13-68.46-39.31-83.28-46.22 3.12-9.16 1.18-16.18 21-14.41 1.69-1.65 6.51-11.15 5.45-13.26-5.49-2.8-18.9-5.84-18.9-5.84s-2.84-4-6.43-5.46a32.64 32.64 0 0 0 -25.18-.33c-.9-.51-4.48-2-7.52-.55-4.88 2.35-3.94 6.23-3.93 6.39a16.08 16.08 0 0 0 -1.94 2 69.24 69.24 0 0 0 -12.88 20.5c-.61 1.42-7.62 15.48-10.36 26.07a60.75 60.75 0 0 0 -2.14 11.64c7.17 43.63 38.64 64.47 38.64 64.47l.76-18.22-4.06-4.58.38-1.25 5.58 4.56 3 23.61a138 138 0 0 0 28.47 13c4.23-11.22 7.19-15.56 6.26-32.59l1.8 4c-.06 1 2.7 3.35 2.72 3.45l19.91 13 3 15.66a106.22 106.22 0 0 0 43.55-12.18z" fill="none" stroke="#8badd3" stroke-linecap="round" stroke-linejoin="round" stroke-width=".22"/><path d="m228.17 103.86c0 57.17-46.34 103.78-103.52 103.51-58.27-.26-102.1-46.22-102.1-103.37 0-61.82 54.19-103.66 102.1-103.66a103.52 103.52 0 0 1 103.52 103.52z" fill="none" stroke="#8badd3" stroke-width=".45"/></g><g clip-path="url(#h)"><path d="m22.47.5h206.1v207.03h-206.1z" fill="none" stroke="#fff"/></g><path d="m22.33 104.13c0 57.18 45 103.4 102.34 103.4a103.52 103.52 0 1 0 0-207c-48.03-.03-102.34 41.8-102.34 103.6" fill="none" stroke="#fff" transform="translate(.14)"/><path d="m1.46 172.12.01-84.82-.85-3.97h14.05l-.83 3.99v84.8l.83 3.96h-14.05z" fill="#fff" stroke="#0065a4" stroke-miterlimit="10"/><path d="m102.18 176h-15.68a21.39 21.39 0 0 0 -.25-4.11c-1-2.74-8.32-21.8-10.63-27.51-.53-1.35-1.07-2.7-1.61-4-1.44-.05-34.09-.07-34.09-.07s-10.15 24.46-13.09 31.61a20.86 20.86 0 0 0 -.74 4.25l-9.21-.17 39.37-92.64h4.08s42 92.74 41.85 92.68m-30.05-41.94-15-34.23q-7.29 17.13-14.65 34.23z" fill="#fff" stroke="#0065a4" stroke-miterlimit="10" transform="translate(.14)"/><path d="m107.29 172v-84.66l-1-4s25.37.08 30.51 0c8.83-.1 19.42 1.21 25.26 8.66 5.34 6.82 4.9 18.4.15 25.46-4.64 6-9.88 8.67-15.27 11.66 6.07 7.57 44.2 60 44.2 60s-3.14 1.88-7.45-2.12c-.41-.34-42.73-46.17-51.51-55.53h-12.77c0 2.31.71 30 1 40.44l1.1 4h-15.1zm12-45.07c8.76-.11 28.16-1.54 33.24-12.38 5-10.58-.56-22.8-12.08-25.45-3.77-.86-20.71-1.65-20.71-1.65s-.45 39.06-.45 39.48" fill="#fff" stroke="#0065a4" stroke-miterlimit="10" transform="translate(.14)"/><path d="m221.43 177.62c-7 0-15.93-1-21.89-3a41.15 41.15 0 0 1 -15.42-9 42.52 42.52 0 0 1 -10.12-14.92 51.32 51.32 0 0 1 -3.67-20 51.43 51.43 0 0 1 3.67-20 41.61 41.61 0 0 1 10.27-14.88 44.5 44.5 0 0 1 15.83-9.25 61.71 61.71 0 0 1 20.28-3.18 67.36 67.36 0 0 1 16.08 1.79c4.86 1.19 12.89 4.3 12.89 4.3a29.32 29.32 0 0 1 -2.18 15.86c-.87-1.36-3.31-6.36-4.91-8.43a23.68 23.68 0 0 0 -5.86-4.26 35.68 35.68 0 0 0 -7.21-3.11 29.53 29.53 0 0 0 -8.81-1.26 41.42 41.42 0 0 0 -14.62 2.52 31 31 0 0 0 -11.76 7.68 35.89 35.89 0 0 0 -7.81 13.22 57.45 57.45 0 0 0 -2.8 19 57.48 57.48 0 0 0 2.8 19 36 36 0 0 0 7.81 13.17 31 31 0 0 0 11.74 7.74c4.49 1.68 11.77 2.52 17 2.52a31.24 31.24 0 0 0 8.87-1.2 47.89 47.89 0 0 0 7.48-2.84 44.49 44.49 0 0 0 6.14-3.57c1.83-1.28 4.61-3.37 4.61-3.37s-.62 8.87-4.47 10.64c-6.94 3.85-15.62 4.82-24 4.83" fill="#fff" stroke="#0065a4" stroke-miterlimit="10" transform="translate(.14)"/></svg>