<svg enable-background="new 0 0 331.514 99.764" height="99.764" viewBox="0 0 331.514 99.764" width="331.514" xmlns="http://www.w3.org/2000/svg"><g fill="#fff"><path d="m4.962 51.535c-.775 0-1.564-.184-2.299-.57-2.433-1.273-3.367-4.274-2.095-6.705l13.01-24.83c.807-1.541 2.363-2.547 4.099-2.653 1.7-.102 3.397.702 4.39 2.133l5.106 7.39 9.108-23.15c.686-1.745 2.299-2.954 4.166-3.128 1.867-.176 3.67.721 4.666 2.31l10.49 16.751 7.459-7.759c1.898-1.976 5.042-2.041 7.023-.137 1.977 1.9 2.041 5.045.141 7.023l-11.873 12.348c-1.061 1.104-2.568 1.658-4.094 1.498-1.521-.157-2.888-1.008-3.698-2.305l-8.641-13.796-8.91 22.652c-.671 1.707-2.23 2.904-4.054 3.116-1.818.207-3.613-.601-4.654-2.109l-5.736-8.296-9.197 17.553c-.887 1.694-2.619 2.664-4.407 2.664z"/><path d="m52.962 64.393c0 7.344-5.951 13.299-13.297 13.299-7.348 0-13.3-5.955-13.3-13.299 0-7.345 5.952-13.3 13.3-13.3 7.346 0 13.297 5.955 13.297 13.3z"/><path d="m37.586 99.764c-19.539 0-35.438-15.895-35.438-35.434 0-2.744 2.225-4.967 4.971-4.967 2.742 0 4.967 2.223 4.967 4.967 0 14.059 11.439 25.5 25.501 25.5 13.85 0 23.293-5.814 28.063-17.275 3.617-8.684.42-22.605-2.236-27.323-1.348-2.392-.499-5.42 1.891-6.768 2.395-1.346 5.421-.498 6.766 1.894 4.171 7.405 7.551 24.494 2.754 36.016-6.282 15.084-19.505 23.39-37.239 23.39z"/><path d="m154.106 39.333c-.331.579-.683 1-1.055 1.262s-.834.393-1.385.393c-.579 0-1.206-.213-1.881-.641-.676-.428-1.482-.903-2.419-1.427-.938-.523-2.033-.999-3.288-1.427-1.254-.427-2.736-.641-4.445-.641-1.544 0-2.895.186-4.053.558s-2.129.89-2.915 1.551c-.786.662-1.372 1.454-1.757 2.378-.386.924-.579 1.937-.579 3.039 0 1.406.393 2.578 1.179 3.515.786.938 1.826 1.737 3.122 2.398 1.295.662 2.771 1.255 4.424 1.778s3.35 1.082 5.086 1.675c1.737.593 3.432 1.281 5.086 2.067 1.654.785 3.128 1.778 4.424 2.978 1.295 1.199 2.336 2.667 3.122 4.403.786 1.737 1.178 3.846 1.178 6.327 0 2.701-.462 5.23-1.385 7.588-.924 2.356-2.274 4.41-4.052 6.161s-3.949 3.129-6.513 4.135c-2.563 1.006-5.5 1.509-8.808 1.509-1.902 0-3.777-.186-5.624-.558s-3.618-.902-5.313-1.592-3.288-1.516-4.776-2.481-2.812-2.04-3.969-3.226l3.267-5.334c.275-.386.634-.709 1.075-.972.44-.262.91-.393 1.406-.393.688 0 1.433.283 2.233.848.799.565 1.75 1.192 2.853 1.881s2.392 1.317 3.866 1.882c1.475.565 3.246.848 5.314.848 3.169 0 5.624-.751 7.36-2.254 1.736-1.502 2.605-3.659 2.605-6.471 0-1.571-.393-2.854-1.179-3.846s-1.826-1.826-3.122-2.502c-1.296-.675-2.771-1.247-4.425-1.716s-3.336-.979-5.045-1.53-3.391-1.213-5.044-1.984c-1.654-.771-3.129-1.778-4.425-3.019s-2.336-2.792-3.122-4.652-1.179-4.155-1.179-6.885c0-2.178.434-4.301 1.303-6.368.868-2.067 2.129-3.9 3.783-5.5 1.654-1.598 3.694-2.88 6.12-3.845 2.425-.965 5.21-1.447 8.353-1.447 3.529 0 6.782.552 9.759 1.653 2.978 1.104 5.513 2.646 7.609 4.632z"/><path d="m174.081 28.52c.345.041.647.124.91.248.262.124.517.304.765.537.248.234.523.545.827.931l31.343 40.027c-.082-.965-.151-1.916-.207-2.854-.055-.937-.082-1.805-.082-2.604v-36.347h9.801v59.792h-5.707c-.883 0-1.619-.145-2.213-.435-.592-.289-1.164-.778-1.715-1.468l-31.22-39.82c.083.883.145 1.758.186 2.626s.062 1.661.062 2.377v36.72h-9.8v-59.792h5.831c.468 0 .874.02 1.219.062z"/><path d="m282.639 88.25h-8.602c-.965 0-1.75-.241-2.356-.724s-1.062-1.082-1.364-1.799l-4.467-12.197h-24.769l-4.466 12.198c-.221.635-.648 1.214-1.281 1.736-.635.524-1.421.786-2.357.786h-8.684l23.528-59.793h11.33zm-38.705-22.577h19.063l-7.278-19.89c-.358-.882-.73-1.923-1.116-3.122s-.772-2.502-1.157-3.908c-.387 1.406-.766 2.716-1.138 3.929-.372 1.214-.737 2.274-1.096 3.184z"/><path d="m299.963 67.203v21.047h-11.123v-59.792h19.436c3.996 0 7.456.469 10.379 1.406 2.922.938 5.334 2.247 7.236 3.928 1.902 1.682 3.314 3.694 4.238 6.037.923 2.344 1.385 4.907 1.385 7.691 0 2.895-.482 5.548-1.447 7.96-.965 2.413-2.412 4.486-4.342 6.224-1.93 1.736-4.349 3.088-7.257 4.052-2.909.966-6.306 1.447-10.192 1.447zm0-8.684h8.312c2.039 0 3.817-.254 5.334-.765 1.516-.51 2.777-1.24 3.783-2.191s1.758-2.109 2.254-3.474.744-2.888.744-4.569c0-1.599-.248-3.046-.744-4.342-.496-1.295-1.24-2.398-2.233-3.308-.992-.91-2.247-1.605-3.763-2.089-1.517-.481-3.309-.724-5.375-.724h-8.312z"/></g></svg>