<svg height="250.83376" viewBox="0 0 299.16626 250.83376" width="299.16626" xmlns="http://www.w3.org/2000/svg" xmlns:xlink="http://www.w3.org/1999/xlink"><clipPath id="a"><path d="m0 200.667h239.333v-200.667h-239.333z"/></clipPath><g clip-path="url(#a)" transform="matrix(1.25 0 0 -1.25 0 250.83375)"><g fill="#fff"><path d="m0 0v-8.91c0-2.232-1.692-4.014-4.464-4.014-2.124 0-4.32 1.206-4.32 4.357v8.279l2.376.288v-8.226c0-1.08.198-2.413 2.052-2.413 1.656 0 1.98 1.135 1.98 2.612v7.739z" transform="translate(39.7334 84.6382)"/><path d="m0 0v12.924h.054l7.38-7.47v7.182l2.376.288v-12.924h-.054l-7.38 7.38v-7.092z" transform="translate(47.0435 71.7144)"/><path d="m0 0v12.491l2.376.288v-12.635z" transform="translate(64.2783 71.8589)"/><path d="m0 0 3.024 7.758 2.394-.288-5.4-12.636h-.036l-5.256 12.636 2.537.288z" transform="translate(77.8213 76.8804)"/><path d="m0 0v12.348h6.642l.396-2.285h-4.662v-2.467h3.744v-2.286h-3.744v-3.024h5.238l-.756-2.286z" transform="translate(89.0601 72.0024)"/><path d="m0 0h.864c1.17 0 2.304.342 2.304 1.729 0 1.421-1.08 1.584-2.25 1.584h-.918zm-2.376 5.598h3.96c2.376 0 4.248-1.152 4.248-3.798 0-1.529-.918-2.772-2.376-3.24l3.366-4.968-2.592-.63-4.194 6.462h-.036v-6.174l-2.376-.144z" transform="translate(105.4834 78.7524)"/><path d="m0 0c.612-.684 1.044-1.333 2.376-1.333.848 0 1.584.666 1.584 1.423 0 2.448-5.381 1.062-5.381 5.436 0 2.358 1.764 3.78 4.211 3.78 1.226 0 2.719-.684 3.456-1.674l-1.475-1.728c-.577.612-1.458 1.116-2.125 1.116-.828 0-1.584-.36-1.584-1.494 0-2.106 5.382-.594 5.382-5.454 0-2.25-1.872-3.69-4.194-3.69-1.548 0-2.844.648-3.888 1.926z" transform="translate(119.0669 75.3325)"/><path d="m0 0v12.491l2.377.288v-12.635z" transform="translate(132.3306 71.8589)"/><path d="m0 0h8.243v-2.285h-3.077v-10.063l-2.377-.143v10.206h-3.365z" transform="translate(141.3179 84.3501)"/><path d="m0 0 2.304.647 2.862-5.687 2.43 5.687 2.339-.647-5.507-12.276-2.449.504 2.017 4.211z" transform="translate(154.8569 83.9907)"/><path d="m0 0c2.195 0 4.031 1.837 4.031 4.032 0 2.197-1.836 4.031-4.031 4.031-2.196 0-4.032-1.834-4.032-4.031 0-2.195 1.836-4.032 4.032-4.032m0 10.494c3.563 0 6.517-2.88 6.517-6.462s-2.954-6.462-6.517-6.462c-3.564 0-6.516 2.88-6.516 6.462s2.952 6.462 6.516 6.462" transform="translate(186.2305 74.144)"/><path d="m0 0h6.353l.523-2.285h-4.5v-2.826h3.33v-2.286h-3.33v-4.951l-2.376-.288z" transform="translate(199.4512 84.3501)"/><path d="m0 0h6.16l-3.16 7.44zm-10.84-10.759 13.8 27.879h.08l14.32-27.879-5.64-.84-3.28 6.959h-10.52l-3.2-6.959z" transform="translate(40.9351 50.9624)"/><path d="m0 0v27.44l5.279.64v-23h10l-1.319-5.08z" transform="translate(66.2871 40.0024)"/><path d="m0 0h6.16l-3.16 7.44zm-10.84-10.759 13.8 27.879h.08l14.32-27.879-5.64-.84-3.28 6.959h-10.52l-3.2-6.959z" transform="translate(98.4624 50.9624)"/><path d="m0 0c1.359-1.521 2.319-2.96 5.279-2.96 1.88 0 3.521 1.48 3.521 3.159 0 5.44-11.96 2.361-11.96 12.08 0 5.241 3.92 8.401 9.359 8.401 2.721 0 6.04-1.521 7.681-3.72l-3.28-3.841c-1.281 1.36-3.241 2.481-4.72 2.481-1.841 0-3.521-.8-3.521-3.321 0-4.679 11.96-1.319 11.96-12.12 0-5-4.16-8.198-9.32-8.198-3.439 0-6.319 1.438-8.64 4.278z" transform="translate(125.8657 47.4028)"/><path d="m0 0 5.08-2.08-8.88-11.4 9.199-13.279-5.439-1.96-9.6 14.799h-.08v-14.16l-5.28-.32v27.76l5.28.64v-12.72h.08z" transform="translate(165.2378 68.0825)"/><path d="m0 0h6.16l-3.16 7.44zm-10.839-10.759 13.798 27.879h.081l14.32-27.879-5.641-.84-3.28 6.959h-10.52l-3.2-6.959z" transform="translate(187.6221 50.9624)"/><path d="m0 0h7.06l.58-2.54h-5v-3.139h3.7v-2.54h-3.7v-5.5l-2.64-.321z" transform="translate(30.4902 32.7222)"/><path d="m0 0h3.08l-1.58 3.72zm-5.42-5.382 6.9 13.94h.04l7.16-13.94-2.82-.42-1.64 3.482h-5.26l-1.6-3.482z" transform="translate(52.0903 24.4844)"/><path d="m0 0v13.879l2.64.321v-14.04z" transform="translate(71.8042 18.8428)"/><path d="m0 0h.96c1.301 0 2.56.38 2.56 1.92 0 1.58-1.2 1.759-2.5 1.759h-1.02zm-2.64 6.219h4.401c2.639 0 4.719-1.278 4.719-4.219 0-1.7-1.02-3.08-2.64-3.599l3.74-5.521-2.879-.7-4.661 7.181h-.04v-6.861l-2.64-.16z" transform="translate(89.8574 26.5029)"/><path d="m0 0h1.38c1.8 0 2.44.541 2.44 1.72 0 1.181-.64 1.721-2.44 1.721h-1.38zm0 5.56h1.46c1.04 0 1.76.66 1.76 1.54s-.72 1.539-1.76 1.539h-1.46zm-2.64 5.619h4.72c3.28 0 4-2.46 4-3.759 0-1.259-.7-2.299-1.84-2.82 1.5-.519 2.54-1.699 2.54-3.359 0-2.08-1.62-3.781-4.24-3.781h-5.18z" transform="translate(111.1982 21.543)"/><path d="m0 0h3.08l-1.58 3.72zm-5.42-5.382 6.899 13.94h.041l7.16-13.94-2.82-.42-1.64 3.482h-5.26l-1.6-3.482z" transform="translate(133.3022 24.4844)"/><path d="m0 0v14.36h.061l8.199-8.298v7.978l2.639.32v-14.36h-.059l-8.199 8.2v-7.88z" transform="translate(152.8979 18.6826)"/><path d="m0 0 2.54-1.04-4.438-5.7 4.598-6.638-2.719-.982-4.8 7.402h-.039v-7.082l-2.642-.16v13.88l2.642.32v-6.36h.039z" transform="translate(183.9722 33.0425)"/><path d="m0 0c.68-.76 1.159-1.481 2.64-1.481.94 0 1.758.74 1.758 1.58 0 2.72-5.978 1.181-5.978 6.04 0 2.619 1.96 4.199 4.68 4.199 1.36 0 3.019-.758 3.838-1.86l-1.638-1.919c-.641.681-1.62 1.239-2.362 1.239-.919 0-1.758-.4-1.758-1.659 0-2.34 5.979-.66 5.979-6.059 0-2.5-2.079-4.101-4.659-4.101-1.722 0-3.16.721-4.32 2.141z" transform="translate(198.7314 22.7041)"/></g><path d="m0 0h-15.306l-14.659 47.243.002 41.757h61.69v-19.731h-31.506v-7.8h24.147v-19.917h-24.368z" fill="none" stroke="#fff" stroke-miterlimit="3.864" stroke-width="2" transform="translate(177.1255 93.2759)"/><path d="m0 0 .005-58.768s-.298-3.908 2.977-3.912c3.644-.004 3.305 3.891 3.305 3.891l-.029 58.789h27.571v-39.937l-16.625-49.063h2.199c-3.773-.65-8.527-1.055-14.514-1.055-31.228 0-32.85 10.168-32.85 10.168v79.887z" fill="none" stroke="#fff" stroke-miterlimit="3.864" stroke-width="2" transform="translate(55.3555 182.3657)"/><path d="m0 0 88.861-.012-27.708 88.978h-31.161z" fill="none" stroke="#fff" stroke-miterlimit="3.864" stroke-width="2" transform="translate(72.6655 93.3013)"/><path d="m0 0 2.015 3.885-.867 4.211-5.023 2.094c-.592-2.875-1.51-5.789-2.745-9.039l-2.641-.266c2.975 6.938 4.229 13.763 3.794 20.485l2.301-.357c.195-3.037.095-5.786-.301-8.499l6.636-2.765 2.278-11.541zm16.565-2.552h13.243l-.789 2.524h-11.993c.213 1.228.441 2.638.656 4.157h10.034l-.791 2.526h-8.911c.163 1.349.304 2.748.415 4.154h7.194l-.789 2.524h-6.248c.227 5.039-.109 9.84-1.747 12.43-5.625 8.892-18.089 11.909-24.396 13.968l-.734-2.593-2.296.859.729 2.584c1 2.937.375 5.186 6.746 4.623.545.527 2.086 3.571 1.75 4.248-1.765.9-6.062 1.874-6.062 1.874s-.912 1.278-2.061 1.75c-2.532 1.039-5.242 1.221-8.073.104-.287.165-1.439.648-2.411.18-1.566-.755-1.264-2-1.26-2.051-.307-.247-.367-.376-.622-.651-1.831-1.974-3.086-4.106-4.145-6.562-.195-.456-2.443-4.962-3.316-8.359-1.721-6.707-1.765-12.06 0-17.754.506-1.63.723-3.198.953-4.736h-15.387l-.864-2.524h16.699c.31-1.389.771-2.767 1.618-4.158h-19.741l-.864-2.523h22.518c.847-1 1.847-2.126 2.68-3.049 2.054.978 3.363 2.662 4.119 5.007l-1.344 10.047-1.502.969 1.874 2.03 1.79-1.462 1.53-11.779c-.758-2.534-1.739-4.38-3.275-5.669h-29.728l-.864-2.524h25.068l-13.465-5.099h60.219l-6.603 2.737s.182.82.446 2.198" fill="#fff" fill-rule="evenodd" transform="translate(126.7466 100.9155)"/><path d="m0 0h1.403v-4.251l.991.061v4.19h1.28v.952h-3.434z" fill="#fff" transform="translate(184.4668 99.2124)"/><path d="m0 0 .389 2.615h.016l1.282-2.615h.015l1.26 2.615h.014l.412-2.615.974.119-.981 5.263h-.015l-1.672-3.448-1.672 3.448h-.013l-.96-5.263z" fill="#fff" transform="translate(189.2373 94.9028)"/></g></svg>